/* XPM */
static char *heizung_32px_xpm[] = {
"32 32 105 2",
"AA	c #FFFFFF",
"BA	c #FBFBFB",
"CA	c #F3F3F3",
"DA	c #AFAFAF",
"EA	c #D7D7D7",
"FA	c #FDFDFD",
"GA	c #FCFCFC",
"HA	c #F9F9F9",
"IA	c #ECECEC",
"JA	c #050505",
"KA	c #000000",
"LA	c #424242",
"MA	c #F5F5F5",
"NA	c #3E3E3E",
"OA	c #303030",
"PA	c #7E7E7E",
"QA	c #3F3F3F",
"RA	c #919191",
"SA	c #F8F8F8",
"TA	c #7C7C7C",
"UA	c #D6D6D6",
"VA	c #F7F7F7",
"WA	c #8F8F8F",
"XA	c #0E0E0E",
"YA	c #D4D4D4",
"ZA	c #EAEAEA",
"aA	c #FEFEFE",
"bA	c #C9C9C9",
"cA	c #EBEBEB",
"dA	c #929292",
"eA	c #222222",
"fA	c #444444",
"gA	c #D9D9D9",
"hA	c #7F7F7F",
"iA	c #CECECE",
"jA	c #969696",
"kA	c #F1F1F1",
"lA	c #414141",
"mA	c #010101",
"nA	c #1A1A1A",
"oA	c #848484",
"pA	c #2B2B2B",
"qA	c #8C8C8C",
"rA	c #313131",
"sA	c #515151",
"tA	c #212121",
"uA	c #505050",
"vA	c #D0D0D0",
"wA	c #ADADAD",
"xA	c #2C2C2C",
"yA	c #777777",
"zA	c #F2F2F2",
"0A	c #191919",
"1A	c #E8E8E8",
"2A	c #616161",
"3A	c #979797",
"4A	c #E7E7E7",
"5A	c #989898",
"6A	c #FAFAFA",
"7A	c #B2B2B2",
"8A	c #C0C0C0",
"9A	c #2D2D2D",
"+A	c #595959",
"/A	c #EEEEEE",
"AB	c #838383",
"BB	c #D5D5D5",
"CB	c #EFEFEF",
"DB	c #151515",
"EB	c #585858",
"FB	c #707070",
"GB	c #434343",
"HB	c #E9E9E9",
"IB	c #D2D2D2",
"JB	c #757575",
"KB	c #545454",
"LB	c #9E9E9E",
"MB	c #CCCCCC",
"NB	c #1C1C1C",
"OB	c #DADADA",
"PB	c #3A3A3A",
"QB	c #EDEDED",
"RB	c #C3C3C3",
"SB	c #242424",
"TB	c #A2A2A2",
"UB	c #181818",
"VB	c #A7A7A7",
"WB	c #2E2E2E",
"XB	c #F6F6F6",
"YB	c #6F6F6F",
"ZB	c #525252",
"aB	c #8D8D8D",
"bB	c #323232",
"cB	c #F4F4F4",
"dB	c #808080",
"eB	c #898989",
"fB	c #8A8A8A",
"gB	c #888888",
"hB	c #858585",
"iB	c #868686",
"jB	c #939393",
"kB	c #4F4F4F",
"lB	c #949494",
"mB	c #DEDEDE",
"nB	c #555555",
"oB	c #6C6C6C",
"AAAAAAAAAAAAAAAAAAAAAABACAAAAADAEAAAAACAFAAAAAAAAAAAAAAAAAAAAAAA",
"AAAAAAAAAAAAAAAAAAGAHAAAAAIAJAKAKALAAAAAAAMAAAAAAAAAAAAAAAAAAAAA",
"AAAAAAAAAAAAAAGACAAAAAGAKAKAKAKAKAKAKANAAAAAAAMAAAAAAAAAAAAAAAAA",
"AAAAAAAAAAAAMAAAAAAAOAKAKAKAKAKAKAKAKAKAKAPAAAAAAAHAAAAAAAAAAAAA",
"AAAAAAAAMAAAAAAAQAKAKAKAKAKAKAKAKAKAKAKAKAKAKARAAAAAGAHAAAAAAAAA",
"AAAASAAAAAAATAKAKAKAKAKAKAKAOAAABAKAKAKAKAKAKAKAKAUAAAAAVAGAAAAA",
"AAAAAAAAWAKAKAKAKAKAKAKAXAAAAAAAAAAAYAKAKAKAKAKAKAKAKAZAAAAAaAAA",
"BAAAbAKAKAKAKAKAKAKAKAcAAAAACAAAGAGAAAAAdAKAKAKAKAKAKAKAeAAAAAFA",
"FAfAKAKAKAKAKAKAKAgAAAAABAGAAAAAAAAASAAAAAAAhAKAKAKAKAKAKAKAiAFA",
"AAKAKAKAKAKAKAjAAAAASAHAAAAAAAkAMAAAAAAAMAAAAAAAlAKAKAKAmAKAnAAA",
"AAKAKAKAKAoAAAAAAAAAAAAAAAAAAAAAAAAAAAAAAAAAAAAAAAAApAKAKAKAqAFA",
"FAAArAsAAAAAAAAAtAKAAAAAFAAAAAKAuAAAAAFAAAvAKAwAAAAAAAHAxAyAAABA",
"AAAAAAAAAAzAAAAAKAKA0AAA1AAA2AKAKA3AAA4AAAKAKAKAAAAAVAAAAAAAAAAA",
"AAGAkAkAFAAAHAAAKAKAKAAAAAAAAAKAKAKAAAkAAA5AKAKANAAAzA6AkAMAAAAA",
"AAAAAAAAAAAAMAAA7AKAKA8AAAcAAA9AKAKAAAAAAAAAKAKAKAAAMAAAAAAAAAAA",
"AAAAAAAAAAAAHAAAAAKAKAqAAA1AAA+AKAKAAAAA/AAAKAKAKAAAGAAAAAAAAAAA",
"AAAAAAAAAAAAkAAAABKAKABBAACBAADBKAKAAAAAAAAAKAKAKAAAkAAAAAAAAAAA",
"AAAAAAAAAAAAAAAAKAKAKAAAaAAAAAKAKAKAAA1AAAWAKAKAEBAAkAAAAAAAAAAA",
"AAAAAAAAAAMAAAFBKAKAGBAAHBAAKAKAKAIBAAAAAAKAKAKAAAAAFAAAAAAAAAAA",
"AAAAAAAAAAVAAAKAKAKAAAAAAAAAKAKAKAAACAAAWAKAKAJBAAVAAAAAAAAAAAAA",
"AAAAAAAAGAAAAAKAKAKBAA1AAALBKAKAMBAA1AAANBKAKAAAAAAAAAAAAAAAAAAA",
"AAAAAAAASAAAOBKAKAjAAA1AAAsAKAKAAAAAIAAAKAKAKAAA6AAAAAAAAAAAAAAA",
"AAAAAAAAGAAAAAKAKAPBAAQBAAjAKAKARBAA1AAASBKAKAAAAAGAAAAAAAAAAAAA",
"AAAAAAAAAAVAAAKAKAKAzAAAAAAAKAKAKAAAMAAATBKAKAUBAAMAAAAAAAAAAAAA",
"AAAAAAAAAAVAAAVBKAKALBAA/AAAWBKAKAAAAAaAAAKAKAKAAAVAAAAAAAAAAAAA",
"AAAAGAMAXBXBBAAAYBZBAABAVAAAAALAaBAAkACAAAAAbBiAAA/AXBMAcBAAAAAA",
"AAAAAAAAAAAAAAAAAAAAAAAAAAAAAAAAAAAAAAAAAAAAAAAAAAAAAAAAAAAAAAAA",
"FAAAAAdBeBeBeBfBABhAfBeBeBfBgBhAABfBeBeBfBgBhAhBfBeBfBiBjBAAAAAA",
"CAAAKAKAKAKAKAKAKAKAKAKAKAKAKAKAKAKAKAKAKAKAKAKAKAKAKAKAKAdBAAMA",
"CAAAKAKAKAKAKAKAKAKAKAKAKAKAKAKAKAKAKAKAKAKAKAKAKAKAKAKAKAkBAAkA",
"CAAAKAKAKAKAKAKAKAKAKAKAKAKAKAKAKAKAKAKAKAKAKAKAKAKAKAKAKAlBAAVA",
"BAAAmBnBsAuAuAuAuAuAuAuAuAuAuAuAuAuAuAuAuAuAuAuAuAuAsAuAoBAAFAAA"
};
